<?xml version="1.0" encoding="UTF-8" standalone="no"?>
<!-- Created with Inkscape (http://www.inkscape.org/) -->

<svg
   xmlns:dc="http://purl.org/dc/elements/1.1/"
   xmlns:cc="http://creativecommons.org/ns#"
   xmlns:rdf="http://www.w3.org/1999/02/22-rdf-syntax-ns#"
   xmlns:svg="http://www.w3.org/2000/svg"
   xmlns="http://www.w3.org/2000/svg"
   xmlns:xlink="http://www.w3.org/1999/xlink"
   xmlns:sodipodi="http://sodipodi.sourceforge.net/DTD/sodipodi-0.dtd"
   xmlns:inkscape="http://www.inkscape.org/namespaces/inkscape"
   width="744.09448819"
   height="1052.3622047"
   id="svg2"
   version="1.1"
   inkscape:version="0.48.4 r9939"
   sodipodi:docname="Tileset.svg"
   inkscape:export-filename="C:\Users\Altren\Documents\GitHub\Speculo\Assets\Media\Tileset.png"
   inkscape:export-xdpi="288"
   inkscape:export-ydpi="288">
  <defs
     id="defs4">
    <marker
       inkscape:stockid="Arrow2Send"
       orient="auto"
       refY="0.0"
       refX="0.0"
       id="Arrow2Send"
       style="overflow:visible;">
      <path
         id="path3860"
         style="fill-rule:evenodd;stroke-width:0.62500000;stroke-linejoin:round;"
         d="M 8.7185878,4.0337352 L -2.2072895,0.016013256 L 8.7185884,-4.0017078 C 6.9730900,-1.6296469 6.9831476,1.6157441 8.7185878,4.0337352 z "
         transform="scale(0.3) rotate(180) translate(-2.3,0)" />
    </marker>
    <marker
       inkscape:stockid="Arrow1Mend"
       orient="auto"
       refY="0.0"
       refX="0.0"
       id="Arrow1Mend"
       style="overflow:visible;">
      <path
         id="path3836"
         d="M 0.0,0.0 L 5.0,-5.0 L -12.5,0.0 L 5.0,5.0 L 0.0,0.0 z "
         style="fill-rule:evenodd;stroke:#000000;stroke-width:1.0pt;"
         transform="scale(0.4) rotate(180) translate(10,0)" />
    </marker>
    <marker
       inkscape:stockid="DiamondSstart"
       orient="auto"
       refY="0.0"
       refX="0.0"
       id="DiamondSstart"
       style="overflow:visible">
      <path
         id="path3921"
         d="M 0,-7.0710768 L -7.0710894,0 L 0,7.0710589 L 7.0710462,0 L 0,-7.0710768 z "
         style="fill-rule:evenodd;stroke:#000000;stroke-width:1.0pt"
         transform="scale(0.2) translate(6,0)" />
    </marker>
    <marker
       inkscape:stockid="Arrow2Mend"
       orient="auto"
       refY="0.0"
       refX="0.0"
       id="Arrow2Mend"
       style="overflow:visible;">
      <path
         id="path3854"
         style="fill-rule:evenodd;stroke-width:0.62500000;stroke-linejoin:round;"
         d="M 8.7185878,4.0337352 L -2.2072895,0.016013256 L 8.7185884,-4.0017078 C 6.9730900,-1.6296469 6.9831476,1.6157441 8.7185878,4.0337352 z "
         transform="scale(0.6) rotate(180) translate(0,0)" />
    </marker>
    <marker
       inkscape:stockid="Arrow2Mstart"
       orient="auto"
       refY="0.0"
       refX="0.0"
       id="Arrow2Mstart"
       style="overflow:visible">
      <path
         id="path3851"
         style="fill-rule:evenodd;stroke-width:0.62500000;stroke-linejoin:round"
         d="M 8.7185878,4.0337352 L -2.2072895,0.016013256 L 8.7185884,-4.0017078 C 6.9730900,-1.6296469 6.9831476,1.6157441 8.7185878,4.0337352 z "
         transform="scale(0.6) translate(0,0)" />
    </marker>
    <marker
       inkscape:stockid="Arrow1Send"
       orient="auto"
       refY="0.0"
       refX="0.0"
       id="Arrow1Send"
       style="overflow:visible;">
      <path
         id="path3842"
         d="M 0.0,0.0 L 5.0,-5.0 L -12.5,0.0 L 5.0,5.0 L 0.0,0.0 z "
         style="fill-rule:evenodd;stroke:#000000;stroke-width:1.0pt;"
         transform="scale(0.2) rotate(180) translate(6,0)" />
    </marker>
    <marker
       inkscape:stockid="TriangleOutM"
       orient="auto"
       refY="0.0"
       refX="0.0"
       id="TriangleOutM"
       style="overflow:visible">
      <path
         id="path3972"
         d="M 5.77,0.0 L -2.88,5.0 L -2.88,-5.0 L 5.77,0.0 z "
         style="fill-rule:evenodd;stroke:#000000;stroke-width:1.0pt"
         transform="scale(0.4)" />
    </marker>
    <marker
       inkscape:stockid="CurveIn"
       orient="auto"
       refY="0.0"
       refX="0.0"
       id="CurveIn"
       style="overflow:visible">
      <path
         id="path4011"
         d="M 4.6254930,-5.0456926 C 1.8654930,-5.0456926 -0.37450702,-2.8056926 -0.37450702,-0.045692580 C -0.37450702,2.7143074 1.8654930,4.9543074 4.6254930,4.9543074"
         style="fill-rule:evenodd;stroke:#000000;stroke-width:1.0pt;fill:none"
         transform="scale(0.6)" />
    </marker>
    <marker
       inkscape:stockid="Arrow1Sstart"
       orient="auto"
       refY="0.0"
       refX="0.0"
       id="Arrow1Sstart"
       style="overflow:visible">
      <path
         id="path3839"
         d="M 0.0,0.0 L 5.0,-5.0 L -12.5,0.0 L 5.0,5.0 L 0.0,0.0 z "
         style="fill-rule:evenodd;stroke:#000000;stroke-width:1.0pt"
         transform="scale(0.2) translate(6,0)" />
    </marker>
    <marker
       inkscape:stockid="Arrow1Lstart"
       orient="auto"
       refY="0.0"
       refX="0.0"
       id="Arrow1Lstart"
       style="overflow:visible">
      <path
         id="path3827"
         d="M 0.0,0.0 L 5.0,-5.0 L -12.5,0.0 L 5.0,5.0 L 0.0,0.0 z "
         style="fill-rule:evenodd;stroke:#000000;stroke-width:1.0pt"
         transform="scale(0.8) translate(12.5,0)" />
    </marker>
    <linearGradient
       id="linearGradient3999">
      <stop
         style="stop-color:#61004f;stop-opacity:1;"
         offset="0"
         id="stop4001" />
      <stop
         id="stop3784"
         offset="0.5"
         style="stop-color:#98688f;stop-opacity:1;" />
      <stop
         style="stop-color:#d0d0d0;stop-opacity:0;"
         offset="1"
         id="stop4003" />
    </linearGradient>
    <radialGradient
       inkscape:collect="always"
       xlink:href="#linearGradient3999"
       id="radialGradient4005"
       cx="220"
       cy="1032.3622"
       fx="220"
       fy="1032.3622"
       r="2.5"
       gradientUnits="userSpaceOnUse" />
  </defs>
  <sodipodi:namedview
     id="base"
     pagecolor="#ffffff"
     bordercolor="#666666"
     borderopacity="1.0"
     inkscape:pageopacity="0.0"
     inkscape:pageshadow="2"
     inkscape:zoom="16.288462"
     inkscape:cx="107.42455"
     inkscape:cy="20.301415"
     inkscape:document-units="px"
     inkscape:current-layer="layer1"
     showgrid="true"
     inkscape:window-width="1812"
     inkscape:window-height="1053"
     inkscape:window-x="99"
     inkscape:window-y="-9"
     inkscape:window-maximized="1">
    <inkscape:grid
       type="xygrid"
       id="grid2985"
       empspacing="4"
       visible="true"
       enabled="true"
       snapvisiblegridlinesonly="true"
       spacingx="1.25px"
       spacingy="1.25px" />
    <inkscape:grid
       empspacing="32"
       visible="true"
       enabled="true"
       snapvisiblegridlinesonly="true"
       empcolor="#00004e"
       empopacity="0.25098039"
       spacingx="1.25px"
       spacingy="1.25px"
       type="xygrid"
       id="grid3791" />
  </sodipodi:namedview>
  <metadata
     id="metadata7">
    <rdf:RDF>
      <cc:Work
         rdf:about="">
        <dc:format>image/svg+xml</dc:format>
        <dc:type
           rdf:resource="http://purl.org/dc/dcmitype/StillImage" />
        <dc:title />
      </cc:Work>
    </rdf:RDF>
  </metadata>
  <g
     inkscape:label="Layer 1"
     inkscape:groupmode="layer"
     id="layer1">
    <rect
       style="fill:#000000;fill-opacity:0.00392157;fill-rule:nonzero;stroke:none"
       id="rect4011"
       width="160"
       height="160"
       x="0"
       y="892.36218"
       ry="0"
       inkscape:export-xdpi="72.000023"
       inkscape:export-ydpi="72.000023" />
    <path
       style="fill:none;stroke:#000000;stroke-width:2;stroke-linecap:butt;stroke-linejoin:miter;stroke-miterlimit:4;stroke-opacity:1;stroke-dasharray:none"
       d="m 35,897.36218 -30,30"
       id="path2987"
       inkscape:connector-curvature="0" />
    <path
       style="fill:none;stroke:#d0d0d0;stroke-width:1px;stroke-linecap:butt;stroke-linejoin:miter;stroke-opacity:1"
       d="m 5,925.36218 28,-28"
       id="path2995"
       inkscape:connector-curvature="0" />
    <path
       style="fill:none;stroke:#d0d0d0;stroke-width:1px;stroke-linecap:butt;stroke-linejoin:miter;stroke-opacity:1"
       d="m 35,899.36218 -28,28"
       id="path2997"
       inkscape:connector-curvature="0" />
    <path
       style="fill:none;stroke:#000000;stroke-width:2;stroke-linecap:butt;stroke-linejoin:miter;stroke-miterlimit:4;stroke-opacity:1;stroke-dasharray:none"
       d="m 45,897.36218 30,30"
       id="path2987-1"
       inkscape:connector-curvature="0" />
    <path
       style="fill:none;stroke:#d0d0d0;stroke-width:1px;stroke-linecap:butt;stroke-linejoin:miter;stroke-opacity:1"
       d="m 75,925.36218 -28,-28"
       id="path2995-7"
       inkscape:connector-curvature="0" />
    <path
       style="fill:none;stroke:#d0d0d0;stroke-width:1px;stroke-linecap:butt;stroke-linejoin:miter;stroke-opacity:1"
       d="m 45,899.36218 28,28"
       id="path2997-4"
       inkscape:connector-curvature="0" />
    <path
       style="fill:none;stroke:#000000;stroke-width:2;stroke-linecap:butt;stroke-linejoin:miter;stroke-miterlimit:4;stroke-opacity:1;stroke-dasharray:none"
       d="m 91,901.36218 0,22"
       id="path2987-8"
       inkscape:connector-curvature="0"
       sodipodi:nodetypes="cc" />
    <path
       style="fill:none;stroke:#d0d0d0;stroke-width:1px;stroke-linecap:butt;stroke-linejoin:miter;stroke-opacity:1"
       d="m 90,922.36218 0,-20"
       id="path2995-3"
       inkscape:connector-curvature="0"
       sodipodi:nodetypes="cc" />
    <path
       style="fill:none;stroke:#000000;stroke-width:2;stroke-linecap:butt;stroke-linejoin:miter;stroke-miterlimit:4;stroke-opacity:1;stroke-dasharray:none"
       d="m 109,901.36218 0,22"
       id="path2987-8-6"
       inkscape:connector-curvature="0"
       sodipodi:nodetypes="cc" />
    <path
       style="fill:none;stroke:#d0d0d0;stroke-width:1px;stroke-linecap:butt;stroke-linejoin:miter;stroke-opacity:1"
       d="m 110,922.36218 0,-20"
       id="path2995-3-4"
       inkscape:connector-curvature="0"
       sodipodi:nodetypes="cc" />
    <path
       style="fill:none;stroke:#000000;stroke-width:2;stroke-linecap:butt;stroke-linejoin:miter;stroke-miterlimit:4;stroke-opacity:1;stroke-dasharray:none"
       d="m 129,921.36218 22,0"
       id="path2987-8-63"
       inkscape:connector-curvature="0"
       sodipodi:nodetypes="cc" />
    <path
       style="fill:none;stroke:#d0d0d0;stroke-width:1px;stroke-linecap:butt;stroke-linejoin:miter;stroke-opacity:1"
       d="m 150,922.36218 -20,0"
       id="path2995-3-9"
       inkscape:connector-curvature="0"
       sodipodi:nodetypes="cc" />
    <path
       style="fill:none;stroke:#000000;stroke-width:2;stroke-linecap:butt;stroke-linejoin:miter;stroke-miterlimit:4;stroke-opacity:1;stroke-dasharray:none"
       d="m 129,903.36218 22,0"
       id="path2987-8-6-0"
       inkscape:connector-curvature="0"
       sodipodi:nodetypes="cc" />
    <path
       style="fill:none;stroke:#d0d0d0;stroke-width:1px;stroke-linecap:butt;stroke-linejoin:miter;stroke-opacity:1"
       d="m 150,902.36218 -20,0"
       id="path2995-3-4-0"
       inkscape:connector-curvature="0"
       sodipodi:nodetypes="cc" />
    <path
       style="fill:none;stroke:#000000;stroke-width:2;stroke-linecap:butt;stroke-linejoin:miter;stroke-miterlimit:4;stroke-opacity:1;stroke-dasharray:none"
       d="m 11,943.36218 18,0 0,18 -18,0 z"
       id="path3944"
       inkscape:connector-curvature="0" />
    <path
       style="fill:none;stroke:#d0d0d0;stroke-width:1px;stroke-linecap:butt;stroke-linejoin:miter;stroke-opacity:1"
       d="m 10,962.36218 0,-20 20,0 0,20 z"
       id="path3942"
       inkscape:connector-curvature="0"
       sodipodi:nodetypes="ccccc" />
    <path
       sodipodi:type="arc"
       style="fill:url(#radialGradient4005);fill-opacity:1;stroke:none"
       id="path3997"
       sodipodi:cx="220"
       sodipodi:cy="1032.3622"
       sodipodi:rx="2.5"
       sodipodi:ry="2.5"
       d="m 222.5,1032.3622 a 2.5,2.5 0 1 1 -5,0 2.5,2.5 0 1 1 5,0 z"
       transform="matrix(2,0,0,1.9999997,-380,-1112.3619)" />
    <path
       style="fill:#000000;fill-opacity:1;stroke:#000000;stroke-width:1px;stroke-linecap:butt;stroke-linejoin:miter;stroke-opacity:1"
       d="m 57.5,937.36218 0,12.5 -12.5,0 c 0,0 7.57044,-0.07 10,-2.5 2.42956,-2.4296 2.5,-10 2.5,-10 z"
       id="path3954"
       inkscape:connector-curvature="0"
       sodipodi:nodetypes="cccac" />
    <path
       style="fill:#000000;fill-opacity:1;stroke:#000000;stroke-width:1px;stroke-linecap:butt;stroke-linejoin:miter;stroke-opacity:1"
       d="m 62.5,937.36217 0,12.5 12.5,0 c 0,0 -7.57044,-0.07 -10,-2.5 -2.42956,-2.4296 -2.5,-10 -2.5,-10 z"
       id="path3954-9"
       inkscape:connector-curvature="0"
       sodipodi:nodetypes="cccac" />
    <path
       style="fill:#000000;fill-opacity:1;stroke:#000000;stroke-width:1px;stroke-linecap:butt;stroke-linejoin:miter;stroke-opacity:1"
       d="m 57.5,967.36217 0,-12.5 -12.5,0 c 0,0 7.57044,0.07 10,2.5 2.42956,2.4296 2.5,10 2.5,10 z"
       id="path3954-8"
       inkscape:connector-curvature="0"
       sodipodi:nodetypes="cccac" />
    <path
       style="fill:#000000;fill-opacity:1;stroke:#000000;stroke-width:1px;stroke-linecap:butt;stroke-linejoin:miter;stroke-opacity:1"
       d="m 62.5,967.36217 0,-12.5 12.5,0 c 0,0 -7.57044,0.07 -10,2.5 -2.42956,2.4296 -2.5,10 -2.5,10 z"
       id="path3954-9-7"
       inkscape:connector-curvature="0"
       sodipodi:nodetypes="cccac" />
    <path
       style="fill:#40c040;fill-opacity:1;stroke:none"
       d="m 2.5,1014.8622 0,35 35,0 0,-35 -35,0 z m 17.5,5 c 6.903559,0 12.5,5.5964 12.5,12.5 0,6.9036 -5.596441,12.5 -12.5,12.5 -6.903559,0 -12.5,-5.5964 -12.5,-12.5 0,-6.9036 5.596441,-12.5 12.5,-12.5 z"
       id="path4013"
       inkscape:connector-curvature="0" />
    <path
       inkscape:connector-curvature="0"
       style="fill:#d82828;fill-opacity:1;stroke:none"
       d="m 42.5,1014.8622 0,35 35,0 0,-35 -35,0 z m 17.5,5 c 6.903559,0 12.5,5.5964 12.5,12.5 0,6.9035 -5.596441,12.5 -12.5,12.5 -6.903559,0 -12.5,-5.5965 -12.5,-12.5 0,-6.9036 5.596441,-12.5 12.5,-12.5 z"
       id="path4013-9" />
    <path
       style="fill:#40c040;fill-opacity:1;stroke:none"
       d="m 82.5,1014.8622 0,35 35,0 0,-35 -35,0 z m 17.5,5 c 6.90356,0 12.5,5.5964 12.5,12.5 0,6.9036 -5.59644,12.5 -12.5,12.5 -6.90356,0 -12.5,-5.5964 -12.5,-12.5 0,-6.9036 5.59644,-12.5 12.5,-12.5 z"
       id="path4013-1"
       inkscape:connector-curvature="0" />
    <path
       inkscape:connector-curvature="0"
       style="fill:#d82828;fill-opacity:1;stroke:none"
       d="m 122.5,1014.8622 0,35 35,0 0,-35 -35,0 z m 17.5,5 c 6.90356,0 12.5,5.5964 12.5,12.5 0,6.9035 -5.59644,12.5 -12.5,12.5 -6.90356,0 -12.5,-5.5965 -12.5,-12.5 0,-6.9036 5.59644,-12.5 12.5,-12.5 z"
       id="path4013-9-7" />
    <path
       style="fill:#ffa40c;fill-opacity:1;fill-rule:nonzero;stroke:none"
       d="m 98.575956,1047.8065 c -4.821396,-0.431 -9.270792,-3.1906 -11.795812,-7.316 -2.1683,-3.5426 -2.8212,-7.7736 -1.82514,-11.8278 1.2204,-4.9672 4.97986,-9.0876 9.864476,-10.8116 2.37402,-0.838 5.20588,-1.112 6.33633,-0.613 0.56342,0.2486 1.17654,0.8904 1.48198,1.5514 0.21944,0.4748 0.23098,0.5736 0.2646,2.2666 l 0.0352,1.77 -0.24898,-0.064 c -1.10264,-0.2814 -1.55722,-0.3368 -2.76685,-0.3366 -1.783244,4e-4 -2.89684,0.2508 -4.40566,0.9912 -5.446516,2.6726 -7.273896,9.4932 -3.910996,14.5978 1.446356,2.1954 3.961216,3.821 6.631112,4.2862 1.17112,0.2042 3.036714,0.13 4.164414,-0.164 1.81916,-0.4744 3.20506,-1.256 4.54176,-2.5616 1.65376,-1.6154 2.52962,-3.3672 2.96036,-5.9208 l 0.0512,-0.3032 -0.50126,0.4852 c -0.61226,0.5928 -0.91462,0.7968 -1.37956,0.9302 -0.51126,0.146 -0.91588,0.128 -1.44096,-0.07 -0.95938,-0.3592 -1.53694,-1.1368 -1.61078,-2.1686 -0.0774,-1.0812 -0.0432,-1.1256 3.92098,-5.1072 l 3.48198,-3.4972 3.52382,3.5406 c 2.26618,2.277 3.58312,3.6646 3.68998,3.888 0.22516,0.4706 0.23156,1.6964 0.01,2.1042 -0.80068,1.4808 -2.52876,1.8242 -3.83318,0.7616 l -0.47328,-0.3854 -0.0562,0.4094 c -0.65836,4.7896 -3.24186,8.8272 -7.23172,11.3018 -2.79778,1.7352 -6.2215,2.5518 -9.478614,2.2606 z"
       id="path8953"
       inkscape:connector-curvature="0" />
    <path
       style="fill:#ffa40c;fill-opacity:1;fill-rule:nonzero;stroke:none"
       d="m 138.57596,1047.8065 c -4.8214,-0.431 -9.2708,-3.1906 -11.79582,-7.316 -2.1683,-3.5426 -2.8212,-7.7736 -1.82514,-11.8278 1.2204,-4.9672 4.97986,-9.0876 9.86448,-10.8116 2.37402,-0.838 5.20588,-1.112 6.33633,-0.613 0.56342,0.2486 1.17654,0.8904 1.48198,1.5514 0.21944,0.4748 0.23098,0.5736 0.2646,2.2666 l 0.0352,1.77 -0.24898,-0.064 c -1.10264,-0.2814 -1.55722,-0.3368 -2.76685,-0.3366 -1.78324,4e-4 -2.89684,0.2508 -4.40566,0.9912 -5.44652,2.6726 -7.2739,9.4932 -3.911,14.5978 1.44636,2.1954 3.96122,3.821 6.63112,4.2862 1.17112,0.2042 3.03671,0.13 4.16441,-0.164 1.81916,-0.4744 3.20506,-1.256 4.54176,-2.5616 1.65376,-1.6154 2.52962,-3.3672 2.96036,-5.9208 l 0.0512,-0.3032 -0.50126,0.4852 c -0.61226,0.5928 -0.91462,0.7968 -1.37956,0.9302 -0.51126,0.146 -0.91588,0.128 -1.44096,-0.07 -0.95938,-0.3592 -1.53694,-1.1368 -1.61078,-2.1686 -0.0774,-1.0812 -0.0432,-1.1256 3.92098,-5.1072 l 3.48198,-3.4972 3.52382,3.5406 c 2.26618,2.277 3.58312,3.6646 3.68998,3.888 0.22516,0.4706 0.23156,1.6964 0.01,2.1042 -0.80068,1.4808 -2.52876,1.8242 -3.83318,0.7616 l -0.47328,-0.3854 -0.0562,0.4094 c -0.65836,4.7896 -3.24186,8.8272 -7.23172,11.3018 -2.79778,1.7352 -6.2215,2.5518 -9.47861,2.2606 z"
       id="path8953-6"
       inkscape:connector-curvature="0" />
  </g>
</svg>
